<svg width="337" height="337" viewBox="0 0 337 337" fill="none" xmlns="http://www.w3.org/2000/svg">
<circle cx="168.5" cy="168.5" r="168.5" fill="white"/>
<circle cx="169" cy="168" r="148" fill="black"/>
<rect x="99" y="107" width="10" height="132" fill="#D9D9D9"/>
<rect x="109" y="107" width="60" height="10" fill="#D9D9D9"/>
<rect x="109" y="128" width="60" height="10" fill="#D9D9D9"/>
<rect x="169" y="66" width="7" height="118" fill="#D9D9D9"/>
<path d="M173 128C181.222 128 189.107 124.734 194.92 118.92C200.734 113.107 204 105.222 204 97C204 88.7783 200.734 80.8933 194.92 75.0797C189.107 69.2661 181.222 66 173 66L173 97L173 128Z" fill="#D9D9D9"/>
<path d="M173 123C179.763 123 186.249 120.313 191.031 115.531C195.813 110.749 198.5 104.263 198.5 97.5C198.5 90.737 195.813 84.251 191.031 79.4688C186.249 74.6866 179.763 72 173 72L173 97.5L173 123Z" fill="black"/>
<path d="M214.5 184L221.797 206.457H245.409L226.306 220.336L233.603 242.793L214.5 228.914L195.397 242.793L202.694 220.336L183.591 206.457H207.203L214.5 184Z" fill="#D9D9D9"/>
</svg>
